<?xml version="1.0" encoding="UTF-8"?>
<svg width="40px" height="30px" viewBox="0 0 40 30" version="1.1" xmlns="http://www.w3.org/2000/svg" xmlns:xlink="http://www.w3.org/1999/xlink">
    <!-- Generator: Sketch 46 (44423) - http://www.bohemiancoding.com/sketch -->
    <title>fog</title>
    <desc>Created with Sketch.</desc>
    <defs></defs>
    <g id="Page-1" stroke="none" stroke-width="1" fill="none" fill-rule="evenodd">
        <path d="M0.462611757,2.58764075 C4.00389865,-0.859209184 10.8622141,-0.861675631 14.4917918,2.57503843 C17.202388,5.14160251 22.7733622,5.13709096 25.4318145,2.58883826 C29.0055855,-0.836790877 35.9533512,-0.83633519 39.5296415,2.5883972 C40.069239,3.10512739 40.1575921,4.04893619 39.7269835,4.69645315 C39.296375,5.34397011 38.5098675,5.44999373 37.97027,4.93326355 C35.306247,2.38213796 29.6534828,2.38176721 26.9921067,4.93282249 C23.4236376,8.35336953 16.5643719,8.35892438 12.9431933,4.93016315 C10.2263687,2.35770152 4.66540414,2.3597014 2.03746436,4.91756083 C1.50130624,5.439421 0.714121436,5.34090189 0.279237897,4.69751223 C-0.155645642,4.05412256 -0.0735463683,3.10950093 0.462611757,2.58764075 Z M0.462611757,10.0876243 C4.00389865,6.64077435 10.8622141,6.63830791 14.4917918,10.075022 C17.202388,12.6415861 22.7733622,12.6370745 25.4318145,10.0888218 C29.0055855,6.66319266 35.9533512,6.66364835 39.5296415,10.0883807 C40.069239,10.6051109 40.1575921,11.5489197 39.7269835,12.1964367 C39.296375,12.8439536 38.5098675,12.9499773 37.97027,12.4332471 C35.306247,9.8821215 29.6534828,9.88175075 26.9921067,12.432806 C23.4236376,15.8533531 16.5643719,15.8589079 12.9431933,12.4301467 C10.2263687,9.85768506 4.66540414,9.85968494 2.03746436,12.4175444 C1.50130624,12.9394045 0.714121436,12.8408854 0.279237897,12.1974958 C-0.155645642,11.5541061 -0.0735463683,10.6094845 0.462611757,10.0876243 Z M0.462611757,17.5876078 C4.00389865,14.1407579 10.8622141,14.1382914 14.4917918,17.5750055 C17.202388,20.1415696 22.7733622,20.137058 25.4318145,17.5888053 C29.0055855,14.1631762 35.9533512,14.1636319 39.5296415,17.5883643 C40.069239,18.1050945 40.1575921,19.0489033 39.7269835,19.6964202 C39.296375,20.3439372 38.5098675,20.4499608 37.97027,19.9332306 C35.306247,17.382105 29.6534828,17.3817343 26.9921067,19.9327896 C23.4236376,23.3533366 16.5643719,23.3588915 12.9431933,19.9301302 C10.2263687,17.3576686 4.66540414,17.3596685 2.03746436,19.9175279 C1.50130624,20.4393881 0.714121436,20.340869 0.279237897,19.6974793 C-0.155645642,19.0540896 -0.0735463683,18.109468 0.462611757,17.5876078 Z M0.462611757,25.0875914 C4.00389865,21.6407414 10.8622141,21.638275 14.4917918,25.074989 C17.202388,27.6415531 22.7733622,27.6370416 25.4318145,25.0887889 C29.0055855,21.6631597 35.9533512,21.6636154 39.5296415,25.0883478 C40.069239,25.605078 40.1575921,26.5488868 39.7269835,27.1964038 C39.296375,27.8439207 38.5098675,27.9499443 37.97027,27.4332142 C35.306247,24.8820886 29.6534828,24.8817178 26.9921067,27.4327731 C23.4236376,30.8533201 16.5643719,30.858875 12.9431933,27.4301138 C10.2263687,24.8576521 4.66540414,24.859652 2.03746436,27.4175114 C1.50130624,27.9393716 0.714121436,27.8408525 0.279237897,27.1974628 C-0.155645642,26.5540732 -0.0735463683,25.6094515 0.462611757,25.0875914 Z" id="fog" fill="#5B85AA" fill-rule="nonzero"></path>
    </g>
</svg>