<?xml version="1.0" encoding="UTF-8"?>
<svg width="40px" height="40px" viewBox="0 0 40 40" version="1.1" xmlns="http://www.w3.org/2000/svg" xmlns:xlink="http://www.w3.org/1999/xlink">
    <!-- Generator: Sketch 46 (44423) - http://www.bohemiancoding.com/sketch -->
    <title>rainy</title>
    <desc>Created with Sketch.</desc>
    <defs></defs>
    <g id="Page-1" stroke="none" stroke-width="1" fill="none" fill-rule="evenodd">
        <path d="M9,40 C7.8954305,40 7,38.9231699 7,37.5948326 C7,36.7092745 7.66666667,34.8443303 9,32 C10.3333333,34.8443303 11,36.7092745 11,37.5948326 C11,38.9231699 10.1045695,40 9,40 Z M19,40 C17.8954305,40 17,38.9231699 17,37.5948326 C17,36.7092745 17.6666667,34.8443303 19,32 C20.3333333,34.8443303 21,36.7092745 21,37.5948326 C21,38.9231699 20.1045695,40 19,40 Z M29,40 C27.8954305,40 27,38.9231699 27,37.5948326 C27,36.7092745 27.6666667,34.8443303 29,32 C30.3333333,34.8443303 31,36.7092745 31,37.5948326 C31,38.9231699 30.1045695,40 29,40 Z M8,28 C3.581722,28 0,24.418278 0,20 C0,16.6338298 2.07901655,13.7532399 5.02305234,12.5722276 C5.00778321,12.3835011 5,12.1926595 5,12 C5,8.13400675 8.13400675,5 12,5 C13.5113459,5 14.9108232,5.47896691 16.0549207,6.29338979 C17.8187912,2.57290747 21.6089282,0 26,0 C32.0751322,0 37,4.92486775 37,11 C37,11.8709905 36.8987698,12.7183374 36.7074331,13.5309171 C38.7031044,14.9856252 40,17.3413595 40,20 C40,24.418278 36.418278,28 32,28 L8,28 Z" id="rainy" fill="#5B85AA"></path>
    </g>
</svg>