<?xml version="1.0" encoding="UTF-8"?>
<svg width="40px" height="40px" viewBox="0 0 40 40" version="1.1" xmlns="http://www.w3.org/2000/svg" xmlns:xlink="http://www.w3.org/1999/xlink">
    <!-- Generator: Sketch 46 (44423) - http://www.bohemiancoding.com/sketch -->
    <title>light_rain</title>
    <desc>Created with Sketch.</desc>
    <defs></defs>
    <g id="Page-1" stroke="none" stroke-width="1" fill="none" fill-rule="evenodd">
        <path d="M8,28 C3.581722,28 0,24.418278 0,20 C0,16.6338298 2.07901655,13.7532399 5.02305234,12.5722276 C5.00778321,12.3835011 5,12.1926595 5,12 C5,8.13400675 8.13400675,5 12,5 C13.5113459,5 14.9108232,5.47896691 16.0549207,6.29338979 C17.8187912,2.57290747 21.6089282,0 26,0 C32.0751322,0 37,4.92486775 37,11 C37,11.8709905 36.8987698,12.7183374 36.7074331,13.5309171 C38.7031044,14.9856252 40,17.3413595 40,20 C40,24.418278 36.418278,28 32,28 L8,28 Z M7,34 C6.44771525,34 6,33.5522847 6,33 C6,32.4477153 6.44771525,32 7,32 C7.55228475,32 8,32.4477153 8,33 C8,33.5522847 7.55228475,34 7,34 Z M7,40 C6.44771525,40 6,39.5522847 6,39 C6,38.4477153 6.44771525,38 7,38 C7.55228475,38 8,38.4477153 8,39 C8,39.5522847 7.55228475,40 7,40 Z M10,37 C9.44771525,37 9,36.5522847 9,36 C9,35.4477153 9.44771525,35 10,35 C10.5522847,35 11,35.4477153 11,36 C11,36.5522847 10.5522847,37 10,37 Z M13,34 C12.4477153,34 12,33.5522847 12,33 C12,32.4477153 12.4477153,32 13,32 C13.5522847,32 14,32.4477153 14,33 C14,33.5522847 13.5522847,34 13,34 Z M13,40 C12.4477153,40 12,39.5522847 12,39 C12,38.4477153 12.4477153,38 13,38 C13.5522847,38 14,38.4477153 14,39 C14,39.5522847 13.5522847,40 13,40 Z M16,37 C15.4477153,37 15,36.5522847 15,36 C15,35.4477153 15.4477153,35 16,35 C16.5522847,35 17,35.4477153 17,36 C17,36.5522847 16.5522847,37 16,37 Z M19,34 C18.4477153,34 18,33.5522847 18,33 C18,32.4477153 18.4477153,32 19,32 C19.5522847,32 20,32.4477153 20,33 C20,33.5522847 19.5522847,34 19,34 Z M19,40 C18.4477153,40 18,39.5522847 18,39 C18,38.4477153 18.4477153,38 19,38 C19.5522847,38 20,38.4477153 20,39 C20,39.5522847 19.5522847,40 19,40 Z M22,37 C21.4477153,37 21,36.5522847 21,36 C21,35.4477153 21.4477153,35 22,35 C22.5522847,35 23,35.4477153 23,36 C23,36.5522847 22.5522847,37 22,37 Z M25,34 C24.4477153,34 24,33.5522847 24,33 C24,32.4477153 24.4477153,32 25,32 C25.5522847,32 26,32.4477153 26,33 C26,33.5522847 25.5522847,34 25,34 Z M25,40 C24.4477153,40 24,39.5522847 24,39 C24,38.4477153 24.4477153,38 25,38 C25.5522847,38 26,38.4477153 26,39 C26,39.5522847 25.5522847,40 25,40 Z M28,37 C27.4477153,37 27,36.5522847 27,36 C27,35.4477153 27.4477153,35 28,35 C28.5522847,35 29,35.4477153 29,36 C29,36.5522847 28.5522847,37 28,37 Z M31,34 C30.4477153,34 30,33.5522847 30,33 C30,32.4477153 30.4477153,32 31,32 C31.5522847,32 32,32.4477153 32,33 C32,33.5522847 31.5522847,34 31,34 Z M31,40 C30.4477153,40 30,39.5522847 30,39 C30,38.4477153 30.4477153,38 31,38 C31.5522847,38 32,38.4477153 32,39 C32,39.5522847 31.5522847,40 31,40 Z" id="light_rain" fill="#5B85AA"></path>
    </g>
</svg>