<?xml version="1.0" encoding="UTF-8"?>
<svg width="40px" height="40px" viewBox="0 0 40 40" version="1.1" xmlns="http://www.w3.org/2000/svg" xmlns:xlink="http://www.w3.org/1999/xlink">
    <!-- Generator: Sketch 46 (44423) - http://www.bohemiancoding.com/sketch -->
    <title>snow</title>
    <desc>Created with Sketch.</desc>
    <defs></defs>
    <g id="Page-1" stroke="none" stroke-width="1" fill="none" fill-rule="evenodd">
        <path d="M8,28 C3.581722,28 0,24.418278 0,20 C0,16.6338298 2.07901655,13.7532399 5.02305234,12.5722276 C5.00778321,12.3835011 5,12.1926595 5,12 C5,8.13400675 8.13400675,5 12,5 C13.5113459,5 14.9108232,5.47896691 16.0549207,6.29338979 C17.8187912,2.57290747 21.6089282,0 26,0 C32.0751322,0 37,4.92486775 37,11 C37,11.8709905 36.8987698,12.7183374 36.7074331,13.5309171 C38.7031044,14.9856252 40,17.3413595 40,20 C40,24.418278 36.418278,28 32,28 L8,28 Z M8,40 C5.790861,40 4,38.209139 4,36 C4,33.790861 5.790861,32 8,32 C10.209139,32 12,33.790861 12,36 C12,38.209139 10.209139,40 8,40 Z M8,38 C9.1045695,38 10,37.1045695 10,36 C10,34.8954305 9.1045695,34 8,34 C6.8954305,34 6,34.8954305 6,36 C6,37.1045695 6.8954305,38 8,38 Z M32,40 C29.790861,40 28,38.209139 28,36 C28,33.790861 29.790861,32 32,32 C34.209139,32 36,33.790861 36,36 C36,38.209139 34.209139,40 32,40 Z M32,38 C33.1045695,38 34,37.1045695 34,36 C34,34.8954305 33.1045695,34 32,34 C30.8954305,34 30,34.8954305 30,36 C30,37.1045695 30.8954305,38 32,38 Z M20,40 C17.790861,40 16,38.209139 16,36 C16,33.790861 17.790861,32 20,32 C22.209139,32 24,33.790861 24,36 C24,38.209139 22.209139,40 20,40 Z M20,38 C21.1045695,38 22,37.1045695 22,36 C22,34.8954305 21.1045695,34 20,34 C18.8954305,34 18,34.8954305 18,36 C18,37.1045695 18.8954305,38 20,38 Z" id="snow" fill="#5B85AA"></path>
    </g>
</svg>