<?xml version="1.0" encoding="UTF-8"?>
<svg width="36px" height="36px" viewBox="0 0 36 36" version="1.1" xmlns="http://www.w3.org/2000/svg" xmlns:xlink="http://www.w3.org/1999/xlink">
    <!-- Generator: Sketch 46 (44423) - http://www.bohemiancoding.com/sketch -->
    <title>sun</title>
    <desc>Created with Sketch.</desc>
    <defs></defs>
    <g id="Page-1" stroke="none" stroke-width="1" fill="none" fill-rule="evenodd">
        <path d="M17.8,0 L18.2774194,0 L18.2774194,-1.11022302e-16 C18.8297041,-2.12475365e-16 19.2774194,0.44771525 19.2774194,1 L19.2774194,3.8 C19.2774194,4.35228475 18.8297041,4.8 18.2774194,4.8 L17.8,4.8 C17.2477153,4.8 16.8,4.35228475 16.8,3.8 L16.8,1 C16.8,0.44771525 17.2477153,-9.5692398e-18 17.8,-1.11022302e-16 L17.8,0 Z M36,17.8 L36,18.2774194 C36,18.8297041 35.5522847,19.2774194 35,19.2774194 L32.2,19.2774194 C31.6477153,19.2774194 31.2,18.8297041 31.2,18.2774194 L31.2,17.8 C31.2,17.2477153 31.6477153,16.8 32.2,16.8 L35,16.8 C35.5522847,16.8 36,17.2477153 36,17.8 Z M17.8,31.2 L18.2774194,31.2 C18.8297041,31.2 19.2774194,31.6477153 19.2774194,32.2 L19.2774194,35 C19.2774194,35.5522847 18.8297041,36 18.2774194,36 L17.8,36 C17.2477153,36 16.8,35.5522847 16.8,35 L16.8,32.2 C16.8,31.6477153 17.2477153,31.2 17.8,31.2 Z M4.8,17.8 L4.8,18.2774194 C4.8,18.8297041 4.35228475,19.2774194 3.8,19.2774194 L1,19.2774194 C0.44771525,19.2774194 -1.59872116e-14,18.8297041 -1.59872116e-14,18.2774194 L-1.59872116e-14,17.8 C-1.59872116e-14,17.2477153 0.44771525,16.8 1,16.8 L3.8,16.8 C4.35228475,16.8 4.8,17.2477153 4.8,17.8 Z M30.5110246,5.12086724 L30.8544513,5.45251059 L30.8544513,5.45251059 C31.2517317,5.83615981 31.262782,6.46922836 30.8791328,6.86650876 L28.9340893,8.8806602 C28.5504401,9.2779406 27.9173716,9.28899085 27.5200912,8.90534163 L27.1766644,8.57369828 C26.779384,8.19004905 26.7683338,7.55698051 27.151983,7.15970011 L29.0970264,5.14554867 L29.0970264,5.14554867 C29.4806756,4.74826827 30.1137442,4.73721801 30.5110246,5.12086724 Z M30.8791328,30.5110246 L30.5474894,30.8544513 C30.1638402,31.2517317 29.5307716,31.262782 29.1334912,30.8791328 L27.1193398,28.9340893 C26.7220594,28.5504401 26.7110091,27.9173716 27.0946584,27.5200912 L27.4263017,27.1766644 C27.8099509,26.779384 28.4430195,26.7683338 28.8402999,27.151983 L30.8544513,29.0970264 L30.8544513,29.0970264 C31.2517317,29.4806756 31.262782,30.1137442 30.8791328,30.5110246 Z M8.47600262,27.151983 L8.81942936,27.4836263 C9.21670976,27.8672756 9.22776001,28.5003441 8.84411079,28.8976245 L6.89906735,30.9117759 C6.51541813,31.3090563 5.88234958,31.3201066 5.48506918,30.9364574 L5.14164244,30.604814 C4.74436204,30.2211648 4.73331178,29.5880963 5.11696101,29.1908159 L7.06200445,27.1766644 L7.06200445,27.1766644 C7.44565367,26.779384 8.07872222,26.7683338 8.47600262,27.151983 Z M8.84411079,8.53723346 L8.51246744,8.8806602 C8.12881822,9.2779406 7.49574967,9.28899085 7.09846927,8.90534163 L5.08431783,6.96029819 C4.68703743,6.57664897 4.67598717,5.94358042 5.0596364,5.54630002 L5.39127975,5.20287328 C5.77492897,4.80559288 6.40799752,4.79454262 6.80527792,5.17819185 L8.81942936,7.12323529 C9.21670976,7.50688451 9.22776001,8.13995305 8.84411079,8.53723346 Z M18,28 C12.4771525,28 8,23.5228475 8,18 C8,12.4771525 12.4771525,8 18,8 C23.5228475,8 28,12.4771525 28,18 C28,23.5228475 23.5228475,28 18,28 Z" id="sun" fill="#E8A260"></path>
    </g>
</svg>